<svg width="2312" height="412" viewBox="0 0 2312 412" fill="none" xmlns="http://www.w3.org/2000/svg">
<rect width="2312" height="412" fill="white"/>
<circle cx="626" cy="206" r="120" fill="url(#paint0_linear_1_31)" stroke="url(#paint1_linear_1_31)" stroke-width="16"/>
<g filter="url(#filter0_d_1_31)">
<path d="M604.215 160.482C583.25 156.664 566.673 160.66 560.067 172.103C555.137 180.642 556.546 191.963 563.485 204.065C563.622 204.316 563.808 204.538 564.031 204.716C564.255 204.895 564.512 205.027 564.788 205.105C565.063 205.183 565.351 205.205 565.636 205.17C565.92 205.135 566.194 205.043 566.442 204.901C566.691 204.758 566.908 204.568 567.082 204.34C567.255 204.113 567.382 203.853 567.454 203.576C567.526 203.299 567.542 203.01 567.5 202.727C567.459 202.443 567.362 202.171 567.214 201.926C560.965 191.025 559.748 181.255 563.79 174.253C569.279 164.747 584.064 161.182 603.444 164.712C604.001 164.805 604.572 164.675 605.034 164.35C605.496 164.025 605.811 163.532 605.912 162.976C606.013 162.421 605.892 161.848 605.575 161.381C605.257 160.915 604.768 160.592 604.215 160.482V160.482ZM574.387 218.774C582.864 228.09 593.877 236.828 606.437 244.079C636.849 261.637 669.225 266.33 685.181 255.451C685.419 255.294 685.625 255.091 685.784 254.854C685.943 254.618 686.054 254.351 686.11 254.071C686.165 253.791 686.164 253.503 686.107 253.223C686.05 252.943 685.938 252.678 685.777 252.442C685.616 252.206 685.41 252.005 685.17 251.849C684.931 251.694 684.662 251.588 684.381 251.537C684.1 251.487 683.812 251.493 683.534 251.555C683.255 251.617 682.991 251.734 682.758 251.899C668.478 261.636 637.723 257.177 608.587 240.356C596.403 233.321 585.738 224.859 577.567 215.88C577.377 215.67 577.148 215.499 576.892 215.378C576.637 215.257 576.359 215.187 576.077 215.174C575.794 215.16 575.511 215.202 575.245 215.297C574.979 215.393 574.734 215.54 574.524 215.731C574.315 215.921 574.145 216.151 574.025 216.408C573.905 216.664 573.836 216.941 573.823 217.224C573.811 217.507 573.854 217.789 573.951 218.055C574.047 218.321 574.195 218.566 574.387 218.774V218.774Z" fill="white"/>
<path d="M680.091 216.159C693.818 199.942 698.611 183.631 692.018 172.213C687.167 163.81 676.912 159.373 663.282 159.196C662.717 159.197 662.175 159.42 661.773 159.817C661.372 160.214 661.142 160.753 661.135 161.318C661.128 161.883 661.343 162.428 661.734 162.836C662.126 163.243 662.661 163.48 663.226 163.495C675.484 163.655 684.32 167.477 688.295 174.363C693.771 183.847 689.496 198.392 676.809 213.381C676.622 213.596 676.481 213.846 676.392 214.116C676.303 214.386 676.268 214.671 676.29 214.955C676.312 215.238 676.39 215.514 676.52 215.768C676.649 216.021 676.828 216.246 677.045 216.43C677.262 216.613 677.513 216.752 677.784 216.838C678.055 216.924 678.341 216.955 678.624 216.93C678.907 216.905 679.183 216.824 679.435 216.692C679.686 216.559 679.909 216.378 680.091 216.159ZM644.811 161.198C632.399 163.857 619.188 169.057 606.5 176.382C575.106 194.508 554.627 221.235 557.471 240.615C557.509 240.897 557.602 241.168 557.746 241.414C557.89 241.659 558.081 241.874 558.308 242.045C558.535 242.216 558.794 242.341 559.07 242.411C559.346 242.482 559.633 242.497 559.914 242.455C560.196 242.414 560.466 242.317 560.71 242.17C560.954 242.024 561.166 241.83 561.334 241.601C561.503 241.371 561.624 241.111 561.691 240.834C561.758 240.558 561.77 240.271 561.725 239.99C559.199 222.783 578.612 197.448 608.65 180.106C620.958 172.999 633.751 167.965 645.712 165.402C645.992 165.347 646.258 165.236 646.495 165.077C646.732 164.918 646.934 164.714 647.091 164.475C647.248 164.237 647.356 163.97 647.409 163.69C647.462 163.409 647.458 163.121 647.398 162.842C647.339 162.563 647.224 162.299 647.061 162.065C646.898 161.83 646.69 161.631 646.449 161.478C646.209 161.325 645.94 161.221 645.659 161.173C645.377 161.125 645.089 161.133 644.811 161.198V161.198Z" fill="white"/>
<path d="M593.95 254.049C601.129 274.091 612.871 286.431 626.074 286.431C635.704 286.431 644.613 279.867 651.561 268.31C651.711 268.068 651.812 267.798 651.857 267.517C651.902 267.236 651.891 266.948 651.824 266.671C651.757 266.394 651.636 266.133 651.468 265.903C651.299 265.674 651.086 265.48 650.842 265.333C650.598 265.186 650.327 265.089 650.045 265.048C649.763 265.007 649.476 265.022 649.199 265.093C648.923 265.164 648.664 265.289 648.437 265.461C648.21 265.633 648.019 265.848 647.876 266.095C641.632 276.481 633.963 282.131 626.074 282.131C615.106 282.131 604.633 271.125 597.999 252.601C597.908 252.33 597.764 252.079 597.575 251.864C597.386 251.649 597.157 251.474 596.899 251.349C596.642 251.225 596.362 251.152 596.077 251.137C595.791 251.121 595.505 251.163 595.236 251.259C594.966 251.356 594.719 251.505 594.508 251.698C594.297 251.891 594.127 252.125 594.007 252.385C593.888 252.644 593.821 252.925 593.811 253.211C593.802 253.497 593.849 253.782 593.951 254.049H593.95ZM659.51 250.129C663.227 238.256 665.222 224.559 665.222 210.285C665.222 174.669 652.756 143.967 635.001 136.083C634.482 135.866 633.899 135.86 633.377 136.068C632.854 136.275 632.433 136.68 632.205 137.194C631.977 137.708 631.959 138.29 632.156 138.817C632.352 139.344 632.747 139.773 633.256 140.012C649.092 147.044 660.922 176.182 660.922 210.285C660.922 224.133 658.99 237.397 655.408 248.845C655.319 249.115 655.285 249.401 655.307 249.685C655.329 249.969 655.408 250.246 655.538 250.499C655.669 250.753 655.848 250.978 656.066 251.161C656.284 251.345 656.536 251.483 656.808 251.568C657.08 251.653 657.366 251.683 657.65 251.657C657.934 251.631 658.209 251.548 658.461 251.414C658.712 251.28 658.935 251.098 659.115 250.877C659.295 250.656 659.43 250.402 659.511 250.129H659.51ZM700 248.023C700 242.341 695.393 237.734 689.711 237.734C684.028 237.734 679.421 242.341 679.421 248.023C679.421 253.706 684.028 258.313 689.711 258.313C695.393 258.313 700 253.706 700 248.023ZM695.701 248.023C695.701 248.81 695.546 249.589 695.245 250.316C694.944 251.042 694.502 251.703 693.946 252.259C693.39 252.815 692.73 253.256 692.003 253.557C691.276 253.858 690.497 254.013 689.711 254.013C688.924 254.013 688.145 253.858 687.418 253.557C686.692 253.256 686.031 252.815 685.475 252.259C684.919 251.703 684.478 251.042 684.177 250.316C683.876 249.589 683.721 248.81 683.721 248.023C683.721 246.435 684.352 244.911 685.475 243.788C686.599 242.664 688.122 242.033 689.711 242.033C691.299 242.033 692.823 242.664 693.946 243.788C695.07 244.911 695.701 246.435 695.701 248.023ZM562.289 258.313C567.973 258.313 572.579 253.706 572.579 248.023C572.579 242.341 567.972 237.734 562.289 237.734C556.607 237.734 552 242.341 552 248.023C552 253.706 556.607 258.313 562.289 258.313ZM562.289 254.013C560.701 254.013 559.177 253.382 558.054 252.259C556.93 251.135 556.299 249.612 556.299 248.023C556.299 246.435 556.93 244.911 558.054 243.788C559.177 242.664 560.701 242.033 562.289 242.033C563.878 242.033 565.401 242.664 566.525 243.788C567.648 244.911 568.279 246.435 568.279 248.023C568.279 249.612 567.648 251.135 566.525 252.259C565.401 253.382 563.878 254.013 562.289 254.013V254.013Z" fill="white"/>
<path d="M626.074 146.579C631.757 146.579 636.363 141.972 636.363 136.289C636.363 130.607 631.757 126 626.074 126C620.391 126 615.785 130.607 615.785 136.289C615.785 141.972 620.391 146.579 626.074 146.579V146.579ZM626.074 142.279C624.486 142.279 622.962 141.648 621.839 140.525C620.715 139.401 620.084 137.878 620.084 136.289C620.084 134.701 620.715 133.177 621.839 132.054C622.962 130.93 624.486 130.299 626.074 130.299C627.663 130.299 629.186 130.93 630.31 132.054C631.433 133.177 632.064 134.701 632.064 136.289C632.064 137.878 631.433 139.401 630.31 140.525C629.186 141.648 627.663 142.279 626.074 142.279V142.279ZM627.645 217.562C623.627 218.43 619.667 215.876 618.798 211.857C618.381 209.927 618.748 207.911 619.818 206.252C620.887 204.593 622.572 203.426 624.502 203.009C628.521 202.14 632.48 204.694 633.351 208.713C634.219 212.732 631.665 216.692 627.645 217.562Z" fill="white"/>
</g>
<path d="M830.812 202H864.125V218H811.5V126.625H864.125V142.5H830.812V162.562H861.812V178.438H830.812V202ZM881.562 120.75H900.625V218H881.562V120.75ZM949.375 146.812C959.042 146.812 966.688 149.583 972.312 155.125C977.938 160.625 980.75 168.438 980.75 178.562V187.812H935.688C935.854 193.188 937.458 197.417 940.5 200.5C943.542 203.542 947.75 205.062 953.125 205.062C957.542 205.062 961.604 204.625 965.312 203.75C969.021 202.833 972.854 201.438 976.812 199.562V214.312C973.312 216.021 969.667 217.271 965.875 218.062C962.125 218.854 957.562 219.25 952.188 219.25C945.271 219.25 939.104 217.958 933.688 215.375C928.271 212.792 924.021 208.875 920.938 203.625C917.896 198.375 916.375 191.688 916.375 183.562C916.375 175.438 917.771 168.646 920.562 163.188C923.312 157.729 927.167 153.646 932.125 150.938C937.083 148.188 942.833 146.812 949.375 146.812ZM949.5 160.375C945.75 160.375 942.688 161.583 940.312 164C937.938 166.375 936.521 170.083 936.062 175.125H962.812C962.729 170.958 961.604 167.458 959.438 164.625C957.271 161.792 953.958 160.375 949.5 160.375ZM1024.62 219.25C1014.21 219.25 1006.17 216.396 1000.5 210.688C994.833 204.979 992 195.896 992 183.438C992 174.854 993.458 167.896 996.375 162.562C999.25 157.188 1003.27 153.229 1008.44 150.688C1013.6 148.104 1019.56 146.812 1026.31 146.812C1031.1 146.812 1035.27 147.292 1038.81 148.25C1042.35 149.167 1045.44 150.271 1048.06 151.562L1042.44 166.312C1039.44 165.104 1036.62 164.125 1034 163.375C1031.42 162.583 1028.85 162.188 1026.31 162.188C1016.4 162.188 1011.44 169.229 1011.44 183.312C1011.44 190.312 1012.73 195.479 1015.31 198.812C1017.94 202.146 1021.6 203.812 1026.31 203.812C1030.31 203.812 1033.85 203.271 1036.94 202.188C1040.02 201.104 1043 199.625 1045.88 197.75V214.062C1043 215.938 1039.96 217.271 1036.75 218.062C1033.54 218.854 1029.5 219.25 1024.62 219.25ZM1091.44 204.062C1093.56 204.062 1095.6 203.875 1097.56 203.5C1099.52 203.083 1101.48 202.542 1103.44 201.875V216.062C1101.4 217.021 1098.85 217.792 1095.81 218.375C1092.81 218.958 1089.52 219.25 1085.94 219.25C1081.73 219.25 1078 218.562 1074.75 217.188C1071.46 215.854 1068.83 213.521 1066.88 210.188C1064.96 206.854 1064 202.167 1064 196.125V162.438H1054.94V154.375L1065.44 148L1070.94 133.25H1083.12V148.125H1102.69V162.438H1083.12V196.125C1083.12 198.75 1083.88 200.729 1085.38 202.062C1086.92 203.396 1088.94 204.062 1091.44 204.062ZM1156.5 146.812C1157.42 146.812 1158.52 146.854 1159.81 146.938C1161.1 147.021 1162.12 147.167 1162.88 147.375L1161.5 165.25C1160.79 165.083 1159.88 164.938 1158.75 164.812C1157.67 164.688 1156.69 164.625 1155.81 164.625C1152.6 164.625 1149.5 165.188 1146.5 166.312C1143.5 167.479 1141.08 169.354 1139.25 171.938C1137.42 174.479 1136.5 177.979 1136.5 182.438V218H1117.44V148.125H1131.88L1134.69 159.875H1135.62C1137.67 156.292 1140.48 153.229 1144.06 150.688C1147.65 148.104 1151.79 146.812 1156.5 146.812ZM1239.06 182.938C1239.06 194.521 1236.02 203.479 1229.94 209.812C1223.85 216.104 1215.56 219.25 1205.06 219.25C1198.56 219.25 1192.77 217.833 1187.69 215C1182.6 212.167 1178.6 208.062 1175.69 202.688C1172.81 197.271 1171.38 190.688 1171.38 182.938C1171.38 171.312 1174.4 162.396 1180.44 156.188C1186.52 149.938 1194.85 146.812 1205.44 146.812C1211.98 146.812 1217.77 148.208 1222.81 151C1227.85 153.792 1231.81 157.896 1234.69 163.312C1237.6 168.729 1239.06 175.271 1239.06 182.938ZM1190.81 182.938C1190.81 189.854 1191.94 195.083 1194.19 198.625C1196.48 202.167 1200.19 203.938 1205.31 203.938C1210.35 203.938 1214 202.167 1216.25 198.625C1218.5 195.083 1219.62 189.854 1219.62 182.938C1219.62 176.021 1218.5 170.833 1216.25 167.375C1214 163.917 1210.31 162.188 1205.19 162.188C1200.15 162.188 1196.48 163.917 1194.19 167.375C1191.94 170.833 1190.81 176.021 1190.81 182.938ZM1294.5 146.812C1302 146.812 1308 148.854 1312.5 152.938C1317.04 156.979 1319.31 163.479 1319.31 172.438V218H1300.25V177.188C1300.25 172.146 1299.35 168.375 1297.56 165.875C1295.77 163.333 1292.92 162.062 1289 162.062C1283.21 162.062 1279.23 164.042 1277.06 168C1274.94 171.958 1273.88 177.667 1273.88 185.125V218H1254.81V148.125H1269.38L1271.94 157.062H1273C1275.21 153.479 1278.25 150.875 1282.12 149.25C1286 147.625 1290.12 146.812 1294.5 146.812Z" fill="black"/>
<path d="M806.469 306V254.602H821.445C828.453 254.602 833.621 255.879 836.949 258.434C840.301 260.965 841.977 264.82 841.977 270C841.977 272.32 841.531 274.371 840.641 276.152C839.75 277.91 838.566 279.398 837.09 280.617C835.637 281.836 834.066 282.832 832.379 283.605L847.496 306H835.402L823.168 286.277H817.332V306H806.469ZM820.637 263.531H817.332V277.418H820.883C824.469 277.418 827.035 276.82 828.582 275.625C830.152 274.43 830.938 272.648 830.938 270.281C830.938 267.844 830.094 266.109 828.406 265.078C826.742 264.047 824.152 263.531 820.637 263.531ZM869.328 265.957C874.766 265.957 879.066 267.516 882.23 270.633C885.395 273.727 886.977 278.121 886.977 283.816V289.02H861.629C861.723 292.043 862.625 294.422 864.336 296.156C866.047 297.867 868.414 298.723 871.438 298.723C873.922 298.723 876.207 298.477 878.293 297.984C880.379 297.469 882.535 296.684 884.762 295.629V303.926C882.793 304.887 880.742 305.59 878.609 306.035C876.5 306.48 873.934 306.703 870.91 306.703C867.02 306.703 863.551 305.977 860.504 304.523C857.457 303.07 855.066 300.867 853.332 297.914C851.621 294.961 850.766 291.199 850.766 286.629C850.766 282.059 851.551 278.238 853.121 275.168C854.668 272.098 856.836 269.801 859.625 268.277C862.414 266.73 865.648 265.957 869.328 265.957ZM869.398 273.586C867.289 273.586 865.566 274.266 864.23 275.625C862.895 276.961 862.098 279.047 861.84 281.883H876.887C876.84 279.539 876.207 277.57 874.988 275.977C873.77 274.383 871.906 273.586 869.398 273.586ZM911.797 265.887C917.094 265.887 921.137 267.035 923.926 269.332C926.738 271.605 928.145 275.098 928.145 279.809V306H920.656L918.582 300.656H918.301C916.613 302.789 914.832 304.336 912.957 305.297C911.082 306.234 908.516 306.703 905.258 306.703C901.766 306.703 898.859 305.695 896.539 303.68C894.242 301.664 893.094 298.523 893.094 294.258C893.094 290.086 894.559 287.016 897.488 285.047C900.418 283.078 904.812 281.977 910.672 281.742L917.492 281.531V279.809C917.492 277.723 916.953 276.211 915.875 275.273C914.797 274.312 913.297 273.832 911.375 273.832C909.453 273.832 907.578 274.113 905.75 274.676C903.945 275.215 902.129 275.883 900.301 276.68L896.75 269.438C898.836 268.383 901.168 267.527 903.746 266.871C906.348 266.215 909.031 265.887 911.797 265.887ZM917.492 291.023V287.789L913.309 287.93C909.863 288.023 907.461 288.645 906.102 289.793C904.766 290.941 904.098 292.453 904.098 294.328C904.098 295.969 904.578 297.141 905.539 297.844C906.5 298.523 907.754 298.863 909.301 298.863C911.598 298.863 913.531 298.184 915.102 296.824C916.695 295.465 917.492 293.531 917.492 291.023ZM955.109 306.703C949.25 306.703 944.727 305.098 941.539 301.887C938.352 298.676 936.758 293.566 936.758 286.559C936.758 281.73 937.578 277.816 939.219 274.816C940.836 271.793 943.098 269.566 946.004 268.137C948.91 266.684 952.262 265.957 956.059 265.957C958.754 265.957 961.098 266.227 963.09 266.766C965.082 267.281 966.816 267.902 968.293 268.629L965.129 276.926C963.441 276.246 961.859 275.695 960.383 275.273C958.93 274.828 957.488 274.605 956.059 274.605C950.48 274.605 947.691 278.566 947.691 286.488C947.691 290.426 948.418 293.332 949.871 295.207C951.348 297.082 953.41 298.02 956.059 298.02C958.309 298.02 960.301 297.715 962.035 297.105C963.77 296.496 965.445 295.664 967.062 294.609V303.785C965.445 304.84 963.734 305.59 961.93 306.035C960.125 306.48 957.852 306.703 955.109 306.703ZM992.691 298.16C993.887 298.16 995.035 298.055 996.137 297.844C997.238 297.609 998.34 297.305 999.441 296.93V304.91C998.293 305.449 996.863 305.883 995.152 306.211C993.465 306.539 991.613 306.703 989.598 306.703C987.23 306.703 985.133 306.316 983.305 305.543C981.453 304.793 979.977 303.48 978.875 301.605C977.797 299.73 977.258 297.094 977.258 293.695V274.746H972.16V270.211L978.066 266.625L981.16 258.328H988.016V266.695H999.02V274.746H988.016V293.695C988.016 295.172 988.438 296.285 989.281 297.035C990.148 297.785 991.285 298.16 992.691 298.16Z" fill="#FF792E"/>
<path d="M1443.68 306H1424.45V254.602H1440.44C1447.24 254.602 1452.41 255.562 1455.95 257.484C1459.48 259.406 1461.25 262.781 1461.25 267.609C1461.25 270.539 1460.56 273.012 1459.18 275.027C1457.82 277.043 1455.86 278.273 1453.31 278.719V279.07C1455.02 279.469 1456.58 280.078 1457.98 280.898C1459.39 281.742 1460.49 282.984 1461.29 284.625C1462.11 286.242 1462.52 288.398 1462.52 291.094C1462.52 295.758 1460.83 299.414 1457.46 302.062C1454.08 304.688 1449.49 306 1443.68 306ZM1441.07 263.531H1435.31V274.957H1441.64C1444.82 274.957 1447.03 274.465 1448.25 273.48C1449.46 272.496 1450.07 271.02 1450.07 269.051C1450.07 267.082 1449.35 265.676 1447.89 264.832C1446.46 263.965 1444.19 263.531 1441.07 263.531ZM1442.09 283.605H1435.31V297H1442.45C1445.7 297 1447.98 296.367 1449.27 295.102C1450.58 293.812 1451.23 292.113 1451.23 290.004C1451.23 288.082 1450.57 286.535 1449.23 285.363C1447.92 284.191 1445.54 283.605 1442.09 283.605ZM1507.66 286.277C1507.66 292.793 1505.95 297.832 1502.53 301.395C1499.11 304.934 1494.44 306.703 1488.54 306.703C1484.88 306.703 1481.62 305.906 1478.76 304.312C1475.9 302.719 1473.65 300.41 1472.01 297.387C1470.39 294.34 1469.59 290.637 1469.59 286.277C1469.59 279.738 1471.29 274.723 1474.68 271.23C1478.11 267.715 1482.79 265.957 1488.75 265.957C1492.43 265.957 1495.68 266.742 1498.52 268.312C1501.36 269.883 1503.58 272.191 1505.2 275.238C1506.84 278.285 1507.66 281.965 1507.66 286.277ZM1480.52 286.277C1480.52 290.168 1481.15 293.109 1482.42 295.102C1483.71 297.094 1485.79 298.09 1488.68 298.09C1491.51 298.09 1493.56 297.094 1494.83 295.102C1496.09 293.109 1496.73 290.168 1496.73 286.277C1496.73 282.387 1496.09 279.469 1494.83 277.523C1493.56 275.578 1491.49 274.605 1488.61 274.605C1485.77 274.605 1483.71 275.578 1482.42 277.523C1481.15 279.469 1480.52 282.387 1480.52 286.277ZM1521.93 251.297C1523.5 251.297 1524.86 251.672 1526.01 252.422C1527.18 253.148 1527.77 254.52 1527.77 256.535C1527.77 258.504 1527.18 259.875 1526.01 260.648C1524.86 261.422 1523.5 261.809 1521.93 261.809C1520.29 261.809 1518.91 261.422 1517.79 260.648C1516.66 259.875 1516.1 258.504 1516.1 256.535C1516.1 254.52 1516.66 253.148 1517.79 252.422C1518.91 251.672 1520.29 251.297 1521.93 251.297ZM1516.52 306V266.695H1527.24V306H1516.52ZM1538.46 251.297H1549.18V306H1538.46V251.297ZM1576.6 265.957C1582.04 265.957 1586.34 267.516 1589.5 270.633C1592.67 273.727 1594.25 278.121 1594.25 283.816V289.02H1568.9C1569 292.043 1569.9 294.422 1571.61 296.156C1573.32 297.867 1575.69 298.723 1578.71 298.723C1581.2 298.723 1583.48 298.477 1585.57 297.984C1587.65 297.469 1589.81 296.684 1592.04 295.629V303.926C1590.07 304.887 1588.02 305.59 1585.88 306.035C1583.77 306.48 1581.21 306.703 1578.18 306.703C1574.29 306.703 1570.82 305.977 1567.78 304.523C1564.73 303.07 1562.34 300.867 1560.61 297.914C1558.89 294.961 1558.04 291.199 1558.04 286.629C1558.04 282.059 1558.82 278.238 1560.39 275.168C1561.94 272.098 1564.11 269.801 1566.9 268.277C1569.69 266.73 1572.92 265.957 1576.6 265.957ZM1576.67 273.586C1574.56 273.586 1572.84 274.266 1571.5 275.625C1570.17 276.961 1569.37 279.047 1569.11 281.883H1584.16C1584.11 279.539 1583.48 277.57 1582.26 275.977C1581.04 274.383 1579.18 273.586 1576.67 273.586ZM1624.91 265.957C1625.42 265.957 1626.04 265.98 1626.77 266.027C1627.5 266.074 1628.07 266.156 1628.49 266.273L1627.72 276.328C1627.32 276.234 1626.8 276.152 1626.17 276.082C1625.56 276.012 1625.01 275.977 1624.52 275.977C1622.71 275.977 1620.97 276.293 1619.28 276.926C1617.59 277.582 1616.23 278.637 1615.2 280.09C1614.17 281.52 1613.66 283.488 1613.66 285.996V306H1602.93V266.695H1611.05L1612.64 273.305H1613.16C1614.31 271.289 1615.89 269.566 1617.91 268.137C1619.93 266.684 1622.26 265.957 1624.91 265.957ZM1657.53 265.957C1661.94 265.957 1665.5 267.68 1668.22 271.125C1670.96 274.547 1672.33 279.598 1672.33 286.277C1672.33 293.004 1670.91 298.09 1668.08 301.535C1665.27 304.98 1661.64 306.703 1657.21 306.703C1654.4 306.703 1652.15 306.188 1650.46 305.156C1648.78 304.125 1647.41 302.965 1646.35 301.676H1645.79C1646.16 303.621 1646.35 305.543 1646.35 307.441V323.297H1635.63V266.695H1644.35L1645.86 271.793H1646.35C1647.41 270.223 1648.82 268.863 1650.61 267.715C1652.39 266.543 1654.7 265.957 1657.53 265.957ZM1654.05 274.535C1651.29 274.535 1649.32 275.414 1648.14 277.172C1647 278.93 1646.4 281.555 1646.35 285.047V286.207C1646.35 290.004 1646.91 292.922 1648.04 294.961C1649.16 297 1651.21 298.02 1654.19 298.02C1656.65 298.02 1658.47 297 1659.64 294.961C1660.81 292.922 1661.4 289.98 1661.4 286.137C1661.4 278.402 1658.95 274.535 1654.05 274.535ZM1681.19 251.297H1691.91V306H1681.19V251.297ZM1719.27 265.887C1724.56 265.887 1728.61 267.035 1731.39 269.332C1734.21 271.605 1735.61 275.098 1735.61 279.809V306H1728.12L1726.05 300.656H1725.77C1724.08 302.789 1722.3 304.336 1720.43 305.297C1718.55 306.234 1715.98 306.703 1712.73 306.703C1709.23 306.703 1706.33 305.695 1704.01 303.68C1701.71 301.664 1700.56 298.523 1700.56 294.258C1700.56 290.086 1702.03 287.016 1704.96 285.047C1707.89 283.078 1712.28 281.977 1718.14 281.742L1724.96 281.531V279.809C1724.96 277.723 1724.42 276.211 1723.34 275.273C1722.27 274.312 1720.77 273.832 1718.84 273.832C1716.92 273.832 1715.05 274.113 1713.22 274.676C1711.41 275.215 1709.6 275.883 1707.77 276.68L1704.22 269.438C1706.3 268.383 1708.64 267.527 1711.21 266.871C1713.82 266.215 1716.5 265.887 1719.27 265.887ZM1724.96 291.023V287.789L1720.78 287.93C1717.33 288.023 1714.93 288.645 1713.57 289.793C1712.23 290.941 1711.57 292.453 1711.57 294.328C1711.57 295.969 1712.05 297.141 1713.01 297.844C1713.97 298.523 1715.22 298.863 1716.77 298.863C1719.07 298.863 1721 298.184 1722.57 296.824C1724.16 295.465 1724.96 293.531 1724.96 291.023ZM1763.18 298.16C1764.37 298.16 1765.52 298.055 1766.62 297.844C1767.72 297.609 1768.82 297.305 1769.93 296.93V304.91C1768.78 305.449 1767.35 305.883 1765.64 306.211C1763.95 306.539 1762.1 306.703 1760.08 306.703C1757.71 306.703 1755.62 306.316 1753.79 305.543C1751.94 304.793 1750.46 303.48 1749.36 301.605C1748.28 299.73 1747.74 297.094 1747.74 293.695V274.746H1742.64V270.211L1748.55 266.625L1751.64 258.328H1758.5V266.695H1769.5V274.746H1758.5V293.695C1758.5 295.172 1758.92 296.285 1759.77 297.035C1760.63 297.785 1761.77 298.16 1763.18 298.16ZM1794.01 265.957C1799.45 265.957 1803.75 267.516 1806.91 270.633C1810.07 273.727 1811.66 278.121 1811.66 283.816V289.02H1786.31C1786.4 292.043 1787.3 294.422 1789.02 296.156C1790.73 297.867 1793.09 298.723 1796.12 298.723C1798.6 298.723 1800.89 298.477 1802.97 297.984C1805.06 297.469 1807.21 296.684 1809.44 295.629V303.926C1807.47 304.887 1805.42 305.59 1803.29 306.035C1801.18 306.48 1798.61 306.703 1795.59 306.703C1791.7 306.703 1788.23 305.977 1785.18 304.523C1782.14 303.07 1779.75 300.867 1778.01 297.914C1776.3 294.961 1775.45 291.199 1775.45 286.629C1775.45 282.059 1776.23 278.238 1777.8 275.168C1779.35 272.098 1781.52 269.801 1784.3 268.277C1787.09 266.73 1790.33 265.957 1794.01 265.957ZM1794.08 273.586C1791.97 273.586 1790.25 274.266 1788.91 275.625C1787.57 276.961 1786.78 279.047 1786.52 281.883H1801.57C1801.52 279.539 1800.89 277.57 1799.67 275.977C1798.45 274.383 1796.59 273.586 1794.08 273.586Z" fill="black"/>
<path d="M1060.65 263.672H1046.69V306H1035.79V263.672H1021.84V254.602H1060.65V263.672ZM1077.1 307.652L1077.73 305.719L1062.12 266.695H1073.87L1081.29 288.809C1081.99 290.895 1082.42 293.168 1082.59 295.629H1082.8C1082.94 294.387 1083.12 293.215 1083.36 292.113C1083.59 291.012 1083.91 289.91 1084.31 288.809L1091.59 266.695H1103.08L1086.45 311.027C1084.93 315.105 1082.75 318.164 1079.91 320.203C1077.08 322.266 1073.79 323.297 1070.04 323.297C1068.79 323.297 1067.74 323.227 1066.87 323.086C1066 322.969 1065.24 322.84 1064.59 322.699V314.191C1065.05 314.309 1065.68 314.414 1066.45 314.508C1067.22 314.602 1068.01 314.648 1068.8 314.648C1071.08 314.648 1072.86 313.957 1074.15 312.574C1075.44 311.215 1076.42 309.574 1077.1 307.652ZM1130.61 265.957C1135.02 265.957 1138.58 267.68 1141.3 271.125C1144.04 274.547 1145.41 279.598 1145.41 286.277C1145.41 293.004 1143.99 298.09 1141.16 301.535C1138.34 304.98 1134.72 306.703 1130.29 306.703C1127.48 306.703 1125.23 306.188 1123.54 305.156C1121.86 304.125 1120.48 302.965 1119.43 301.676H1118.87C1119.24 303.621 1119.43 305.543 1119.43 307.441V323.297H1108.71V266.695H1117.43L1118.94 271.793H1119.43C1120.48 270.223 1121.9 268.863 1123.68 267.715C1125.46 266.543 1127.77 265.957 1130.61 265.957ZM1127.13 274.535C1124.36 274.535 1122.39 275.414 1121.22 277.172C1120.07 278.93 1119.48 281.555 1119.43 285.047V286.207C1119.43 290.004 1119.99 292.922 1121.12 294.961C1122.24 297 1124.29 298.02 1127.27 298.02C1129.73 298.02 1131.55 297 1132.72 294.961C1133.89 292.922 1134.48 289.98 1134.48 286.137C1134.48 278.402 1132.03 274.535 1127.13 274.535ZM1170.48 265.957C1175.91 265.957 1180.21 267.516 1183.38 270.633C1186.54 273.727 1188.12 278.121 1188.12 283.816V289.02H1162.78C1162.87 292.043 1163.77 294.422 1165.48 296.156C1167.2 297.867 1169.56 298.723 1172.59 298.723C1175.07 298.723 1177.36 298.477 1179.44 297.984C1181.53 297.469 1183.68 296.684 1185.91 295.629V303.926C1183.94 304.887 1181.89 305.59 1179.76 306.035C1177.65 306.48 1175.08 306.703 1172.06 306.703C1168.17 306.703 1164.7 305.977 1161.65 304.523C1158.61 303.07 1156.21 300.867 1154.48 297.914C1152.77 294.961 1151.91 291.199 1151.91 286.629C1151.91 282.059 1152.7 278.238 1154.27 275.168C1155.82 272.098 1157.98 269.801 1160.77 268.277C1163.56 266.73 1166.8 265.957 1170.48 265.957ZM1170.55 273.586C1168.44 273.586 1166.71 274.266 1165.38 275.625C1164.04 276.961 1163.25 279.047 1162.99 281.883H1178.04C1177.99 279.539 1177.36 277.57 1176.14 275.977C1174.92 274.383 1173.05 273.586 1170.55 273.586ZM1227.99 291.727C1227.99 296.297 1226.35 299.941 1223.07 302.66C1219.79 305.355 1215.12 306.703 1209.08 306.703C1203.59 306.703 1198.74 305.672 1194.52 303.609V293.484C1196.96 294.539 1199.49 295.512 1202.12 296.402C1204.74 297.27 1207.34 297.703 1209.92 297.703C1212.62 297.703 1214.53 297.188 1215.65 296.156C1216.78 295.125 1217.34 293.824 1217.34 292.254C1217.34 290.988 1216.89 289.887 1216 288.949C1215.11 288.035 1213.92 287.18 1212.42 286.383C1210.94 285.586 1209.25 284.73 1207.36 283.816C1206.14 283.254 1204.84 282.574 1203.45 281.777C1202.07 280.98 1200.75 279.996 1199.48 278.824C1198.19 277.652 1197.14 276.223 1196.32 274.535C1195.5 272.848 1195.09 270.832 1195.09 268.488C1195.09 263.871 1196.64 260.285 1199.76 257.73C1202.9 255.152 1207.16 253.863 1212.52 253.863C1215.22 253.863 1217.76 254.18 1220.15 254.812C1222.54 255.422 1225.09 256.312 1227.78 257.484L1224.27 265.957C1221.9 264.996 1219.78 264.258 1217.9 263.742C1216.05 263.203 1214.14 262.934 1212.17 262.934C1210.11 262.934 1208.52 263.414 1207.39 264.375C1206.29 265.336 1205.74 266.59 1205.74 268.137C1205.74 269.965 1206.56 271.406 1208.2 272.461C1209.84 273.516 1212.27 274.805 1215.48 276.328C1218.08 277.547 1220.33 278.836 1222.23 280.195C1224.05 281.555 1225.47 283.148 1226.48 284.977C1227.49 286.805 1227.99 289.055 1227.99 291.727ZM1252.46 306.703C1246.6 306.703 1242.08 305.098 1238.89 301.887C1235.7 298.676 1234.11 293.566 1234.11 286.559C1234.11 281.73 1234.93 277.816 1236.57 274.816C1238.19 271.793 1240.45 269.566 1243.36 268.137C1246.26 266.684 1249.61 265.957 1253.41 265.957C1256.11 265.957 1258.45 266.227 1260.44 266.766C1262.43 267.281 1264.17 267.902 1265.64 268.629L1262.48 276.926C1260.79 276.246 1259.21 275.695 1257.73 275.273C1256.28 274.828 1254.84 274.605 1253.41 274.605C1247.83 274.605 1245.04 278.566 1245.04 286.488C1245.04 290.426 1245.77 293.332 1247.22 295.207C1248.7 297.082 1250.76 298.02 1253.41 298.02C1255.66 298.02 1257.65 297.715 1259.39 297.105C1261.12 296.496 1262.8 295.664 1264.41 294.609V303.785C1262.8 304.84 1261.09 305.59 1259.28 306.035C1257.48 306.48 1255.2 306.703 1252.46 306.703ZM1295.42 265.957C1295.94 265.957 1296.56 265.98 1297.29 266.027C1298.01 266.074 1298.59 266.156 1299.01 266.273L1298.23 276.328C1297.84 276.234 1297.32 276.152 1296.69 276.082C1296.08 276.012 1295.53 275.977 1295.04 275.977C1293.23 275.977 1291.48 276.293 1289.8 276.926C1288.11 277.582 1286.75 278.637 1285.72 280.09C1284.69 281.52 1284.17 283.488 1284.17 285.996V306H1273.45V266.695H1281.57L1283.15 273.305H1283.68C1284.83 271.289 1286.41 269.566 1288.43 268.137C1290.44 266.684 1292.77 265.957 1295.42 265.957ZM1311.56 251.297C1313.13 251.297 1314.49 251.672 1315.64 252.422C1316.81 253.148 1317.39 254.52 1317.39 256.535C1317.39 258.504 1316.81 259.875 1315.64 260.648C1314.49 261.422 1313.13 261.809 1311.56 261.809C1309.92 261.809 1308.54 261.422 1307.41 260.648C1306.29 259.875 1305.72 258.504 1305.72 256.535C1305.72 254.52 1306.29 253.148 1307.41 252.422C1308.54 251.672 1309.92 251.297 1311.56 251.297ZM1306.14 306V266.695H1316.87V306H1306.14ZM1349.98 265.957C1354.39 265.957 1357.95 267.68 1360.67 271.125C1363.41 274.547 1364.79 279.598 1364.79 286.277C1364.79 293.004 1363.37 298.09 1360.53 301.535C1357.72 304.98 1354.1 306.703 1349.67 306.703C1346.86 306.703 1344.61 306.188 1342.92 305.156C1341.23 304.125 1339.86 302.965 1338.8 301.676H1338.24C1338.62 303.621 1338.8 305.543 1338.8 307.441V323.297H1328.08V266.695H1336.8L1338.31 271.793H1338.8C1339.86 270.223 1341.28 268.863 1343.06 267.715C1344.84 266.543 1347.15 265.957 1349.98 265.957ZM1346.5 274.535C1343.74 274.535 1341.77 275.414 1340.6 277.172C1339.45 278.93 1338.85 281.555 1338.8 285.047V286.207C1338.8 290.004 1339.37 292.922 1340.49 294.961C1341.62 297 1343.67 298.02 1346.64 298.02C1349.11 298.02 1350.92 297 1352.09 294.961C1353.27 292.922 1353.85 289.98 1353.85 286.137C1353.85 278.402 1351.4 274.535 1346.5 274.535ZM1390.24 298.16C1391.43 298.16 1392.58 298.055 1393.68 297.844C1394.79 297.609 1395.89 297.305 1396.99 296.93V304.91C1395.84 305.449 1394.41 305.883 1392.7 306.211C1391.01 306.539 1389.16 306.703 1387.14 306.703C1384.78 306.703 1382.68 306.316 1380.85 305.543C1379 304.793 1377.52 303.48 1376.42 301.605C1375.34 299.73 1374.8 297.094 1374.8 293.695V274.746H1369.71V270.211L1375.61 266.625L1378.71 258.328H1385.56V266.695H1396.57V274.746H1385.56V293.695C1385.56 295.172 1385.98 296.285 1386.83 297.035C1387.7 297.785 1388.83 298.16 1390.24 298.16Z" fill="#6497E3"/>
<defs>
<filter id="filter0_d_1_31" x="544" y="126" width="164" height="176.431" filterUnits="userSpaceOnUse" color-interpolation-filters="sRGB">
<feFlood flood-opacity="0" result="BackgroundImageFix"/>
<feColorMatrix in="SourceAlpha" type="matrix" values="0 0 0 0 0 0 0 0 0 0 0 0 0 0 0 0 0 0 127 0" result="hardAlpha"/>
<feOffset dy="8"/>
<feGaussianBlur stdDeviation="4"/>
<feComposite in2="hardAlpha" operator="out"/>
<feColorMatrix type="matrix" values="0 0 0 0 0 0 0 0 0 0 0 0 0 0 0 0 0 0 0.25 0"/>
<feBlend mode="normal" in2="BackgroundImageFix" result="effect1_dropShadow_1_31"/>
<feBlend mode="normal" in="SourceGraphic" in2="effect1_dropShadow_1_31" result="shape"/>
</filter>
<linearGradient id="paint0_linear_1_31" x1="626" y1="78" x2="626" y2="334" gradientUnits="userSpaceOnUse">
<stop stop-color="#15C5F9"/>
<stop offset="1" stop-color="#1464EB"/>
</linearGradient>
<linearGradient id="paint1_linear_1_31" x1="626" y1="78" x2="626" y2="334" gradientUnits="userSpaceOnUse">
<stop stop-color="#14C4F9"/>
<stop offset="1" stop-color="#0031C0"/>
</linearGradient>
</defs>
</svg>
